<?xml version="1.0" standalone="no"?>
<!DOCTYPE svg PUBLIC "-//W3C//DTD SVG 20010904//EN"
 "http://www.w3.org/TR/2001/REC-SVG-20010904/DTD/svg10.dtd">
<svg version="1.0" xmlns="http://www.w3.org/2000/svg"
 width="292.000000pt" height="203.000000pt" viewBox="0 0 292.000000 203.000000"
 preserveAspectRatio="xMidYMid meet">
<metadata>
Created by potrace 1.10, written by Peter Selinger 2001-2011
</metadata>
<g transform="translate(0.000000,203.000000) scale(0.050000,-0.050000)"
fill="#ffffff" stroke="none">
<path d="M2633 3920 c-1361 -244 -2026 -1785 -1264 -2929 603 -907 1815 -1161
2701 -566 273 184 281 206 127 342 -48 42 -125 113 -171 158 l-83 81 -61 -51
c-683 -575 -1771 -338 -2152 469 -621 1315 1000 2599 2140 1696 l100 -79 174
173 c200 199 200 195 20 337 -377 297 -1041 457 -1531 369z"/>
<path d="M4207 2400 c-63 -25 -107 -99 -107 -182 0 -197 298 -255 391 -76 85
164 -101 332 -284 258z"/>
<path d="M4162 1768 c-140 -117 -47 -329 145 -328 196 1 277 206 130 329 -82
69 -193 69 -275 -1z"/>
</g>
</svg>
