<?xml version="1.0" standalone="no"?>
<!DOCTYPE svg PUBLIC "-//W3C//DTD SVG 20010904//EN"
 "http://www.w3.org/TR/2001/REC-SVG-20010904/DTD/svg10.dtd">
<svg version="1.0" xmlns="http://www.w3.org/2000/svg"
 width="500.000000pt" height="500.000000pt" viewBox="0 0 500.000000 500.000000"
 preserveAspectRatio="xMidYMid meet">

<g transform="translate(0.000000,500.000000) scale(0.100000,-0.100000)"
fill="#000000" stroke="none">
<path d="M2460 4209 c-579 -74 -1072 -425 -1326 -944 -29 -60 -67 -152 -84
-203 -34 -106 -71 -276 -69 -319 2 -26 2 -26 6 -3 42 259 131 488 271 695 213
315 555 577 908 694 155 51 290 73 494 81 l185 7 -160 0 c-88 0 -189 -3 -225
-8z"/>
<path d="M2893 4203 c9 -2 25 -2 35 0 9 3 1 5 -18 5 -19 0 -27 -2 -17 -5z"/>
<path d="M2968 4193 c6 -2 18 -2 25 0 6 3 1 5 -13 5 -14 0 -19 -2 -12 -5z"/>
<path d="M3023 4183 c9 -2 23 -2 30 0 6 3 -1 5 -18 5 -16 0 -22 -2 -12 -5z"/>
<path d="M3078 4173 c7 -3 16 -2 19 1 4 3 -2 6 -13 5 -11 0 -14 -3 -6 -6z"/>
<path d="M3118 4163 c7 -3 16 -2 19 1 4 3 -2 6 -13 5 -11 0 -14 -3 -6 -6z"/>
<path d="M3421 4056 c10 -9 109 -56 109 -51 0 5 -95 55 -106 55 -4 0 -5 -2 -3
-4z"/>
<path d="M3560 3986 c0 -3 9 -10 20 -16 11 -6 20 -8 20 -6 0 3 -9 10 -20 16
-11 6 -20 8 -20 6z"/>
<path d="M3700 3896 c0 -2 8 -10 18 -17 15 -13 16 -12 3 4 -13 16 -21 21 -21
13z"/>
<path d="M3755 3850 c10 -11 20 -20 23 -20 3 0 -3 9 -13 20 -10 11 -20 20 -23
20 -3 0 3 -9 13 -20z"/>
<path d="M3820 3795 c19 -19 36 -35 39 -35 3 0 -10 16 -29 35 -19 19 -36 35
-39 35 -3 0 10 -16 29 -35z"/>
<path d="M2475 3756 c-444 -85 -818 -407 -961 -828 -36 -107 -28 -107 11 0
195 537 752 879 1324 813 247 -29 467 -121 648 -270 l65 -53 156 155 c86 86
153 160 149 164 -4 4 -76 -61 -160 -144 l-152 -151 -74 60 c-138 111 -291 188
-470 235 -83 22 -121 26 -281 29 -126 2 -207 -1 -255 -10z"/>
<path d="M3780 2849 c-123 -49 -138 -229 -26 -298 45 -28 67 -27 25 2 -19 12
-45 43 -58 70 -40 81 -11 167 74 218 32 20 25 24 -15 8z"/>
<path d="M1481 2814 c0 -11 3 -14 6 -6 3 7 2 16 -1 19 -3 4 -6 -2 -5 -13z"/>
<path d="M4000 2803 c13 -18 25 -33 27 -33 8 0 -17 38 -33 51 -11 9 -9 2 6
-18z"/>
<path d="M4037 2714 c6 -68 11 -77 12 -24 0 25 -3 51 -8 59 -5 8 -7 -5 -4 -35z"/>
<path d="M973 2665 c0 -27 2 -38 4 -22 2 15 2 37 0 50 -2 12 -4 0 -4 -28z"/>
<path d="M4030 2632 c0 -6 -14 -28 -32 -49 -29 -34 -29 -35 -4 -13 31 28 50
59 42 68 -3 3 -6 0 -6 -6z"/>
<path d="M3750 2297 c-98 -65 -98 -209 0 -274 47 -33 57 -28 16 7 -46 41 -70
102 -61 159 5 35 17 55 50 88 47 48 45 55 -5 20z"/>
<path d="M4043 2160 c0 -25 2 -35 4 -22 2 12 2 32 0 45 -2 12 -4 2 -4 -23z"/>
<path d="M3505 1573 c-60 -54 -180 -130 -270 -173 -168 -79 -301 -110 -520
-120 l-160 -7 130 -1 c215 -3 391 36 570 125 117 59 309 193 295 206 -3 3 -23
-11 -45 -30z"/>
<path d="M3770 1385 c47 -47 87 -85 90 -85 2 0 -33 38 -80 85 -47 47 -87 85
-90 85 -2 0 33 -38 80 -85z"/>
<path d="M2448 1293 c7 -3 16 -2 19 1 4 3 -2 6 -13 5 -11 0 -14 -3 -6 -6z"/>
<path d="M2503 1283 c9 -2 23 -2 30 0 6 3 -1 5 -18 5 -16 0 -22 -2 -12 -5z"/>
<path d="M3770 1208 c-230 -188 -497 -307 -797 -359 -111 -18 -153 -21 -318
-16 -140 4 -216 11 -289 27 -277 59 -524 175 -736 344 -91 73 -106 78 -36 12
69 -65 199 -156 306 -214 411 -223 923 -262 1373 -105 199 69 386 178 567 332
22 19 31 33 25 39 -6 6 -42 -17 -95 -60z"/>
</g>
</svg>
